<svg xmlns="http://www.w3.org/2000/svg" viewBox="0 0 48 48" width="48" height="48">
  <defs>
    <linearGradient id="cloudGradient" x1="0%" y1="0%" x2="100%" y2="100%">
      <stop offset="0%" style="stop-color:#a855f7"/>
      <stop offset="50%" style="stop-color:#8b5cf6"/>
      <stop offset="100%" style="stop-color:#7c3aed"/>
    </linearGradient>
    <filter id="shadow" x="-50%" y="-50%" width="200%" height="200%">
      <feDropShadow dx="1" dy="2" stdDeviation="1" flood-color="#4c1d95" flood-opacity="0.3"/>
    </filter>
  </defs>
  
  <!-- Background circle for better visibility -->
  <circle cx="24" cy="24" r="22" fill="#1e1b4b" opacity="0.1"/>
  
  <!-- Main cloud shape - optimized for small sizes -->
  <path d="M36 20c0-6-4.9-11-11-11-4.2 0-7.8 2.4-9.6 6-0.8-0.4-1.7-0.6-2.7-0.6-3 0-5.4 2.4-5.4 5.4 0 1.1 0.3 2.1 0.8 2.9C6.2 23.4 5 25.1 5 27.1c0 3 2.4 5.4 5.4 5.4h24.1c4.5 0 8.1-3.6 8.1-8.1S40.5 16.4 36 20z" 
        fill="url(#cloudGradient)" 
        filter="url(#shadow)"/>
  
  <!-- Cloud highlights for depth -->
  <ellipse cx="30" cy="18" rx="4" ry="2" fill="#ddd6fe" opacity="0.6"/>
  <ellipse cx="22" cy="17" rx="3" ry="1.5" fill="#ddd6fe" opacity="0.4"/>
  <ellipse cx="16" cy="25" rx="2" ry="1" fill="#c4b5fd" opacity="0.5"/>
</svg> 